<svg width="34" height="33" viewBox="0 0 34 33" fill="none" xmlns="http://www.w3.org/2000/svg">
<g clip-path="url(#clip0_1_2440)">
<path d="M31.9284 24.75C31.9284 25.297 31.7111 25.8216 31.3244 26.2084C30.9376 26.5952 30.413 26.8125 29.866 26.8125H5.11744C4.57046 26.8125 4.04589 26.5952 3.65912 26.2084C3.27234 25.8216 3.05506 25.297 3.05506 24.75V12.375C3.05506 11.828 3.27234 11.3034 3.65912 10.9166C4.04589 10.5298 4.57046 10.3125 5.11744 10.3125H7.53455C9.17464 10.3116 10.7473 9.65952 11.9068 8.49956L13.6186 6.79181C14.0043 6.406 14.5271 6.18871 15.0726 6.1875H19.9068C20.4537 6.18762 20.9782 6.40499 21.3649 6.79181L23.0725 8.49956C23.6472 9.07441 24.3295 9.5304 25.0804 9.84147C25.8313 10.1525 26.6361 10.3126 27.4489 10.3125H29.866C30.413 10.3125 30.9376 10.5298 31.3244 10.9166C31.7111 11.3034 31.9284 11.828 31.9284 12.375V24.75ZM5.11744 8.25C4.02349 8.25 2.97434 8.6846 2.20079 9.45818C1.42725 10.2318 0.992676 11.281 0.992676 12.375L0.992676 24.75C0.992676 25.844 1.42725 26.8932 2.20079 27.6668C2.97434 28.4404 4.02349 28.875 5.11744 28.875H29.866C30.96 28.875 32.0091 28.4404 32.7827 27.6668C33.5562 26.8932 33.9908 25.844 33.9908 24.75V12.375C33.9908 11.281 33.5562 10.2318 32.7827 9.45818C32.0091 8.6846 30.96 8.25 29.866 8.25H27.4489C26.3551 8.24977 25.3061 7.81502 24.5327 7.04138L22.8251 5.33362C22.0517 4.55998 21.0027 4.12523 19.9089 4.125H15.0746C13.9808 4.12523 12.9318 4.55998 12.1584 5.33362L10.4508 7.04138C9.6774 7.81502 8.62842 8.24977 7.53455 8.25H5.11744Z" fill="#464E5F"/>
<path d="M17.492 22.6875C16.1245 22.6875 14.8131 22.1443 13.8462 21.1773C12.8792 20.2103 12.336 18.8988 12.336 17.5312C12.336 16.1637 12.8792 14.8522 13.8462 13.8852C14.8131 12.9182 16.1245 12.375 17.492 12.375C18.8594 12.375 20.1709 12.9182 21.1378 13.8852C22.1047 14.8522 22.6479 16.1637 22.6479 17.5312C22.6479 18.8988 22.1047 20.2103 21.1378 21.1773C20.1709 22.1443 18.8594 22.6875 17.492 22.6875ZM17.492 24.75C19.4064 24.75 21.2424 23.9895 22.5961 22.6357C23.9498 21.2819 24.7103 19.4458 24.7103 17.5312C24.7103 15.6167 23.9498 13.7806 22.5961 12.4268C21.2424 11.073 19.4064 10.3125 17.492 10.3125C15.5776 10.3125 13.7415 11.073 12.3878 12.4268C11.0341 13.7806 10.2736 15.6167 10.2736 17.5312C10.2736 19.4458 11.0341 21.2819 12.3878 22.6357C13.7415 23.9895 15.5776 24.75 17.492 24.75ZM7.18006 13.4062C7.18006 13.6798 7.07142 13.9421 6.87803 14.1355C6.68464 14.3289 6.42236 14.4375 6.14887 14.4375C5.87538 14.4375 5.61309 14.3289 5.4197 14.1355C5.22632 13.9421 5.11768 13.6798 5.11768 13.4062C5.11768 13.1327 5.22632 12.8704 5.4197 12.677C5.61309 12.4836 5.87538 12.375 6.14887 12.375C6.42236 12.375 6.68464 12.4836 6.87803 12.677C7.07142 12.8704 7.18006 13.1327 7.18006 13.4062Z" fill="#464E5F"/>
</g>
<defs>
<clipPath id="clip0_1_2440">
<rect width="32.9981" height="33" fill="white" transform="translate(0.992676)"/>
</clipPath>
</defs>
</svg>
